<?xml version="1.0" encoding="utf-8"?>
<!-- Generator: Adobe Illustrator 19.0.0, SVG Export Plug-In . SVG Version: 6.00 Build 0)  -->
<svg version="1.1" id="Facebook" xmlns="http://www.w3.org/2000/svg" xmlns:xlink="http://www.w3.org/1999/xlink" x="0px" y="0px"
	 viewBox="-213.8 360.1 121.7 121.7" style="enable-background:new -213.8 360.1 121.7 121.7;" xml:space="preserve">
<path d="M-153,360.1c-33.5,0-60.8,27.3-60.8,60.8c0,33.5,27.3,60.8,60.8,60.8c33.5,0,60.8-27.3,60.8-60.8
	C-92.1,387.3-119.4,360.1-153,360.1z M-153,475.7c-30.2,0-54.8-24.6-54.8-54.8c0-30.2,24.6-54.8,54.8-54.8s54.8,24.6,54.8,54.8
	C-98.1,451.1-122.7,475.7-153,475.7z"/>
<path d="M-134.2,385.2h-13.2c0,0-0.1,0-0.1,0c-13.3,0-15.1,9.3-15.1,17.5c0,0.1,0,0.2,0,0.2v5.7h-9.1c-0.6,0-1,0.4-1,1v14.1
	c0,0.6,0.4,1,1,1h9.1v30.9c0,0.6,0.4,1,1,1h13.3c0.6,0,1-0.4,1-1v-30.9h13.1c0.6,0,1-0.4,1-1v-14.1c0-0.6-0.4-1-1-1h-14.1v-7.6h14.1
	c0.6,0,1-0.4,1-1v-13.9C-133.2,385.6-133.7,385.2-134.2,385.2z"/>
</svg>
