<?xml version="1.0" encoding="utf-8"?>
<!-- Generator: Adobe Illustrator 19.0.0, SVG Export Plug-In . SVG Version: 6.00 Build 0)  -->
<svg version="1.1" id="Capa_1" xmlns="http://www.w3.org/2000/svg" xmlns:xlink="http://www.w3.org/1999/xlink" x="0px" y="0px"
	 viewBox="-261 361.1 121.6 121.6" style="enable-background:new -261 361.1 121.6 121.6;" xml:space="preserve">
<g>
	<g>
		<path d="M-189.6,384.1h-17.8c-8,0-13.5,1.7-18.4,5.8c-3.9,3.4-6.2,8.2-6.2,13.1c0,7.4,5.7,15.3,16.2,15.3c1,0,2.1-0.1,3.1-0.2
			l-0.1,0.4c-0.4,1-0.8,2-0.8,3.5c0,2.9,1.4,4.7,2.7,6.4l0.2,0.2l-0.3,0c-4.3,0.3-12.4,0.9-18.3,4.5c-7,4.1-7.5,10.2-7.5,11.9
			c0,6.9,6.5,14,20.9,14c16.8,0,25.6-9.3,25.6-18.4c0-6.8-4-10.1-8.2-13.7l-3.6-2.8c-1.1-0.9-2.5-2-2.5-4.1c0-2.1,1.4-3.4,2.6-4.6
			l0.1-0.1c3.8-3,8.2-6.5,8.2-13.9c0-7.5-4.7-11.3-6.9-13.2h5.9c0.1,0,0.1,0,0.2-0.1l5.1-3.2c0.1-0.1,0.2-0.3,0.2-0.4
			C-189.3,384.2-189.4,384.1-189.6,384.1z M-211.3,454.8c-10.3,0-17.1-4.8-17.1-11.9c0-4.7,2.8-8,8.4-10c4.4-1.5,10.2-1.6,10.2-1.6
			c1,0,1.5,0,2.2,0.1c7.2,5.1,10.6,7.8,10.6,12.9C-196.9,450.8-202.4,454.8-211.3,454.8z M-211.3,415.6c-8.6,0-12.2-11.3-12.2-17.4
			c0-3.1,0.7-5.4,2.1-7.2c1.6-2,4.2-3.2,6.8-3.2c7.9,0,12.3,10.6,12.3,18c0,1.2,0,4.7-2.4,7.1C-206.4,414.5-209,415.6-211.3,415.6z"
			/>
		<path d="M-164.6,419h-9.4v-9.4c0-0.2-0.2-0.4-0.4-0.4h-4c-0.2,0-0.4,0.2-0.4,0.4v9.4h-9.4c-0.2,0-0.4,0.2-0.4,0.4v4.1
			c0,0.2,0.2,0.4,0.4,0.4h9.4v9.4c0,0.2,0.2,0.4,0.4,0.4h4c0.2,0,0.4-0.2,0.4-0.4v-9.4h9.4c0.2,0,0.4-0.2,0.4-0.4v-4.1
			C-164.2,419.2-164.4,419-164.6,419z"/>
	</g>
</g>
<path d="M-200.2,361.1c-33.5,0-60.8,27.3-60.8,60.8s27.3,60.8,60.8,60.8s60.8-27.3,60.8-60.8C-139.4,388.3-166.7,361.1-200.2,361.1z
	 M-200.2,476.7c-30.2,0-54.8-24.6-54.8-54.8c0-30.2,24.6-54.8,54.8-54.8s54.8,24.6,54.8,54.8S-170,476.7-200.2,476.7z"/>
</svg>
