<?xml version="1.0" encoding="utf-8"?>
<!-- Generator: Adobe Illustrator 19.0.0, SVG Export Plug-In . SVG Version: 6.00 Build 0)  -->
<svg version="1.1" id="Capa_1" xmlns="http://www.w3.org/2000/svg" xmlns:xlink="http://www.w3.org/1999/xlink" x="0px" y="0px"
	 viewBox="71 276.9 288 288" style="enable-background:new 71 276.9 288 288;" xml:space="preserve">
<path d="M357.7,506.5l-1.4-4.4c-3.4-10.1-14.5-20.6-24.8-23.4l-37.8-10.3c-10.3-2.8-24.9,1-32.4,8.5l-13.7,13.7
	c-49.8-13.5-88.8-52.5-102.2-102.3l13.7-13.7c7.5-7.5,11.3-22.1,8.5-32.4l-10.3-37.8c-2.8-10.3-13.3-21.4-23.4-24.8l-4.3-1.4
	c-10.1-3.4-24.5,0-32,7.6L77,306.3c-3.7,3.6-6,14-6,14.1c-0.7,65.1,24.8,127.7,70.8,173.7c45.9,45.9,108.3,71.3,173.2,70.8
	c0.3,0,11.1-2.3,14.7-5.9l20.5-20.5C357.7,531,361.1,516.5,357.7,506.5z"/>
</svg>
