<?xml version="1.0" encoding="utf-8"?>
<!-- Generator: Adobe Illustrator 19.0.0, SVG Export Plug-In . SVG Version: 6.00 Build 0)  -->
<svg version="1.1" id="Capa_1" xmlns="http://www.w3.org/2000/svg" xmlns:xlink="http://www.w3.org/1999/xlink" x="0px" y="0px"
	 viewBox="-259 360.3 121.6 121.6" style="enable-background:new -259 360.3 121.6 121.6;" xml:space="preserve">
<g>
	<path d="M-197.3,382.2c-21.2,0-31.9,15.2-31.9,27.9c0,7.7,2.9,14.5,9.1,17c1,0.4,1.9,0,2.2-1.1c0.2-0.8,0.7-2.8,0.9-3.6
		c0.3-1.1,0.2-1.5-0.6-2.5c-1.8-2.1-2.9-4.9-2.9-8.7c0-11.3,8.4-21.4,22-21.4c12,0,18.6,7.3,18.6,17.1c0,12.9-5.7,23.7-14.1,23.7
		c-4.7,0-8.2-3.9-7-8.6c1.3-5.7,3.9-11.8,3.9-15.8c0-3.7-2-6.7-6-6.7c-4.8,0-8.6,4.9-8.6,11.5c0,4.2,1.4,7.1,1.4,7.1
		s-4.9,20.7-5.7,24.3c-1.7,7.2-0.3,16.1-0.1,17c0.1,0.5,0.8,0.7,1.1,0.3c0.4-0.6,6.1-7.6,8.1-14.6c0.5-2,3.1-12.3,3.1-12.3
		c1.6,3,6.1,5.6,10.9,5.6c14.3,0,24.1-13.1,24.1-30.6C-169.1,394.5-180.3,382.2-197.3,382.2z"/>
</g>
<path d="M-198.2,360.3c-33.5,0-60.8,27.3-60.8,60.8s27.3,60.8,60.8,60.8s60.8-27.3,60.8-60.8C-137.4,387.5-164.7,360.3-198.2,360.3z
	 M-198.2,475.9c-30.2,0-54.8-24.6-54.8-54.8c0-30.2,24.6-54.8,54.8-54.8s54.8,24.6,54.8,54.8S-168,475.9-198.2,475.9z"/>
</svg>
