<?xml version="1.0" encoding="utf-8"?>
<!-- Generator: Adobe Illustrator 19.0.0, SVG Export Plug-In . SVG Version: 6.00 Build 0)  -->
<svg version="1.1" id="Capa_1" xmlns="http://www.w3.org/2000/svg" xmlns:xlink="http://www.w3.org/1999/xlink" x="0px" y="0px"
	 viewBox="-236 360.2 121.7 121.7" style="enable-background:new -236 360.2 121.7 121.7;" xml:space="preserve">
<g>
	<g>
		<path d="M-143.4,401.1c-2.4,1-4.9,1.7-7.5,2.1c2.7-1.6,4.8-4.2,5.8-7.2c-2.5,1.5-5.3,2.6-8.3,3.2c-2.4-2.6-5.8-4.1-9.5-4.1
			c-7.2,0-13.1,5.9-13.1,13.1c0,1,0.1,2,0.3,3c-10.9-0.5-20.5-5.7-26.9-13.7c-1.1,2-1.8,4.2-1.8,6.6c0,4.5,2.3,8.5,5.8,10.9
			c-2.1,0-4.2-0.6-5.9-1.6v0.1c0,6.4,4.5,11.6,10.5,12.8c-1.1,0.3-2.2,0.4-3.4,0.4c-0.8,0-1.7,0-2.5-0.2c1.7,5.2,6.5,9,12.2,9.1
			c-4.4,3.5-10.1,5.6-16.2,5.6c-1.1,0-2.1,0-3.1-0.2c5.8,3.7,12.7,5.9,20.1,5.9c24.1,0,37.2-19.9,37.2-37.2c0-0.6,0-1.1,0-1.7
			C-147.4,406.1-145.1,403.8-143.4,401.1z"/>
	</g>
</g>
<path d="M-175.1,360.2c-33.5,0-60.8,27.3-60.8,60.8s27.3,60.8,60.8,60.8s60.8-27.3,60.8-60.8C-114.4,387.4-141.6,360.2-175.1,360.2z
	 M-175.1,475.8c-30.2,0-54.8-24.6-54.8-54.8c0-30.2,24.6-54.8,54.8-54.8s54.8,24.6,54.8,54.8S-144.9,475.8-175.1,475.8z"/>
</svg>
