<svg width="402" height="515" viewBox="0 0 402 515" fill="none" xmlns="http://www.w3.org/2000/svg">
<path fill-rule="evenodd" clip-rule="evenodd" d="M109.546 21.9398C97.5899 61.0592 95.0079 92.8667 101.214 124.628C105.558 146.854 113.097 160.258 133.606 182.219C152.778 202.747 165.438 210.8 206.04 228.3C277.16 258.952 310.379 281.561 325.553 309.632C337.299 331.368 339.409 345.018 338.744 394.931C338.071 445.398 340.646 462.679 350.833 476.056L356.224 483.138L352.67 472.173C346.348 452.672 346.063 422.716 351.895 390.238C358.468 353.633 358.915 318.859 352.972 306.486C341.317 282.222 324.319 267.132 272.016 234.613C251.006 221.55 227.749 206.2 220.334 200.501C172.267 163.562 135.235 96.4678 121.314 21.0992C119.242 9.87627 117.301 0.385725 117.002 0.0104895C116.703 -0.367181 113.348 9.50102 109.546 21.9398ZM60.6301 118.867C61.8569 162.963 66.6184 186.844 78.9503 210.754C89.0578 230.354 98.4503 240.522 116.618 251.54C137.302 264.084 158.279 271.169 207.663 282.302C271.699 296.737 278.058 299.671 300.297 325.067C314.234 340.981 321.544 358.317 324.073 381.461C325.472 394.272 325.75 394.821 327.466 388.111C330.651 375.668 325.809 339.568 319.187 326.376C303.171 294.47 276.344 274.627 218.597 251.979C202.811 245.787 184.61 237.824 178.149 234.282C134.435 210.306 88.9881 157.931 71.9418 111.874C59.1469 77.3089 59.4683 77.1093 60.6301 118.867ZM0.451299 97.7886C-1.34411 114.338 2.43771 147.485 7.89584 163.062C18.8952 194.448 35.656 212.165 78.7076 237.912C79.9097 238.631 78.6066 235.439 75.8112 230.822C62.2682 208.439 50.6799 173.645 50.6799 155.363C50.6799 150.438 46.5073 144.223 34.1325 130.717C25.032 120.785 14.318 106.38 10.3227 98.7073C6.32962 91.0342 2.79274 84.7551 2.46243 84.7551C2.13211 84.7551 1.22654 90.62 0.451299 97.7886ZM327.068 159.454C327.068 160.925 320.304 162.202 310.948 162.497C281.809 163.421 274.719 173.313 290.029 191.687C312.42 218.563 382.29 237.084 397.81 220.254C404.408 213.098 403.34 206.97 393.705 196.756C383.672 186.12 370.716 178.464 350.418 171.174C340.666 167.672 331.423 163.033 329.879 160.865C328.334 158.696 327.068 158.062 327.068 159.454ZM324.261 168.06C325.806 168.255 327.071 169.052 327.074 169.834C327.077 170.613 330.221 171.376 334.065 171.527C344.507 171.937 379.082 191.846 383.161 199.799C388.236 209.701 384.038 212.737 365.708 212.401C338.39 211.904 303.142 198.259 291.965 183.856C285.609 175.667 285.923 172.514 293.541 168.106C298.462 165.258 301.792 165.253 324.261 168.06ZM49.2374 246.24C69.0341 294.783 94.9179 313.487 156.036 323.427C165.166 324.91 173.024 325.706 173.498 325.192C173.972 324.675 170.548 321.497 165.887 318.125C153.991 309.519 142.684 297.39 134.514 284.468C128.716 275.299 125.391 272.685 115 269.135C108.11 266.778 89.5836 257.773 73.8247 249.12C58.0684 240.468 44.9095 233.387 44.5858 233.387C44.2601 233.387 46.3543 239.172 49.2374 246.24ZM146.614 287.197C152.589 298.261 169.851 314.958 182.486 321.898C196.798 329.763 215.035 333.316 240.409 333.177L260.781 333.069L247.298 319.547C230.07 302.269 218.664 295.236 204.604 293.213C198.425 292.322 182.922 288.915 170.157 285.64C157.389 282.363 145.956 279.683 144.749 279.683C143.542 279.683 144.383 283.065 146.614 287.197ZM248.422 306.503C271.825 324.768 286.155 343.776 294.017 366.99C297.896 378.445 298.735 386.831 298.938 416.13C299.167 449.43 299.545 452.335 305.539 466.624C314.664 488.383 335.929 509.411 354.035 514.583C357.876 515.68 357.028 514.627 351.341 511.245C340.643 504.877 327.26 487.463 321.77 472.759C318.385 463.692 317.085 451.787 315.735 417.349C314.623 389.074 312.748 369.088 310.449 361.098C303.711 337.643 288.206 320.83 261.271 307.769C241.312 298.089 237.11 297.677 248.422 306.503ZM91.0777 322.246C100.363 336.877 126.386 362.468 137.311 367.709C149.504 373.558 188.877 378.495 200.189 375.595L208.669 373.419L199.876 367.109C195.041 363.64 186.378 355.842 180.624 349.775C170.835 339.46 168.739 338.439 148.059 333.891C135.902 331.22 116.667 325.236 105.315 320.592L84.676 312.152L91.0777 322.246ZM189.084 345.854C202.463 360.77 211.75 367.422 228.845 374.33C246.907 381.627 284.375 381.487 284.375 374.121C284.375 372.771 281.816 365.483 278.69 357.925L273.005 344.188L239.928 344.098C212.233 344.023 204.507 343.158 192.454 338.784L178.055 333.56L189.084 345.854ZM138.316 381.455C138.316 385.858 154.578 399.61 167.19 405.87C181.697 413.074 209.422 417.544 224.43 415.106L235.155 413.362L228.868 408.253C225.41 405.444 218.505 398.951 213.525 393.82C204.552 384.581 204.269 384.483 183.19 383.458C171.484 382.889 156.602 381.641 150.113 380.689C142.513 379.575 138.316 379.844 138.316 381.455Z" fill="url(#paint0_linear)"/>
<defs>
<linearGradient id="paint0_linear" x1="201" y1="0" x2="201" y2="515" gradientUnits="userSpaceOnUse">
<stop offset="0.0520833" stop-color="#F5D7D8"/>
<stop offset="0.515625" stop-color="#F5D7D8" stop-opacity="0"/>
<stop offset="1" stop-color="#F5D7D8"/>
</linearGradient>
</defs>
</svg>
